<?xml version="1.0" encoding="UTF-8"?><svg id="Layer_2" xmlns="http://www.w3.org/2000/svg" viewBox="0 0 24 15"><defs><style>.cls-1{fill:#0348dc;}.cls-2{fill:#ea4c89;}</style></defs><g id="Layer_1-2"><path class="cls-1" d="m7.8,1.8c0-.99-.81-1.8-1.8-1.8s-1.8.81-1.8,1.8H0v13.2h12V1.8h-4.2Zm.3,1.2v.6s-4.2,0-4.2,0v-.6h4.2Zm-2.1-1.8c.33,0,.6.27.6.6h-1.2c0-.33.27-.6.6-.6Zm4.8,12.6H1.2V3h1.5v.6c0,.66.54,1.2,1.2,1.2h4.19c.66,0,1.2-.54,1.2-1.2v-.6h1.5v10.8Z"/><path class="cls-2" d="m19.8,1.8c0-.99-.81-1.8-1.8-1.8s-1.8.81-1.8,1.8h-4.2v13.2h12V1.8h-4.2Zm.3,1.2v.6s-4.2,0-4.2,0v-.6h4.2Zm-2.1-1.8c.33,0,.6.27.6.6h-1.2c0-.33.27-.6.6-.6Zm4.8,12.6h-9.6V3h1.5v.6c0,.66.54,1.2,1.2,1.2h4.19c.66,0,1.2-.54,1.2-1.2v-.6h1.5v10.8Z"/></g></svg>