<?xml version="1.0" encoding="UTF-8"?>
<svg id="Layer_2" xmlns="http://www.w3.org/2000/svg" version="1.1" viewBox="0 0 13.1 20.1">
  <!-- Generator: Adobe Illustrator 29.4.0, SVG Export Plug-In . SVG Version: 2.1.0 Build 152)  -->
  <defs>
    <style>
      .st0 {
        fill: #fff;
      }
    </style>
  </defs>
  <g id="Layer_1-2">
    <path class="st0" d="M12.6,20.1c-.1,0-.2,0-.3-.1l-5.7-3.8-5.7,3.8c-.2.1-.4.1-.6,0C.1,20,0,19.8,0,19.6V1.6c0-.9.7-1.6,1.6-1.6h10c.9,0,1.6.7,1.6,1.6v18c0,.2-.1.4-.3.5,0,0-.2,0-.3,0h0ZM6.6,15c.1,0,.2,0,.3.1l5.1,3.4V1.6c0-.2-.2-.4-.4-.4H1.6c-.2,0-.4.2-.4.4v16.9l5.1-3.4c0,0,.2-.1.3-.1Z"/>
  </g>
</svg>