<?xml version="1.0" encoding="UTF-8"?><svg id="Layer_2" xmlns="http://www.w3.org/2000/svg" viewBox="0 0 19.33 19.13"><defs><style>.cls-1{fill:#333;}</style></defs><g id="Layer_1-2"><path class="cls-1" d="M17.76,5.76H1.57c-.86,0-1.57-.7-1.57-1.57v-.11c0-.86.7-1.57,1.57-1.57h16.2c.86,0,1.57.7,1.57,1.57v.11c0,.86-.7,1.57-1.57,1.57ZM1.57,3.65c-.24,0-.43.19-.43.43v.11c0,.24.19.43.43.43h16.2c.24,0,.43-.19.43-.43v-.11c0-.24-.19-.43-.43-.43H1.57Z"/><path class="cls-1" d="M15.5,19.13H3.83c-.52,0-.95-.37-.99-.87L1.58,5.25c-.02-.16.04-.32.14-.44.11-.12.26-.19.42-.19h15.04c.16,0,.31.07.42.19.11.12.16.28.14.44l-1.26,13.02c-.05.49-.47.86-.99.86ZM15.37,18.16h0s0,0,0,0ZM3.96,18.16h0s0,0,0,0ZM3.95,18h11.43l1.18-12.24H2.77l1.18,12.24Z"/><path class="cls-1" d="M9.72,15.63c-.31,0-.57-.25-.57-.57v-7.23c0-.31.25-.57.57-.57s.57.25.57.57v7.23c0,.31-.25.57-.57.57Z"/><path class="cls-1" d="M12.94,15.63s-.02,0-.03,0c-.31-.02-.55-.28-.54-.6l.4-7.23c.02-.31.29-.55.6-.53.31.02.55.28.54.6l-.4,7.23c-.02.3-.27.54-.57.54Z"/><path class="cls-1" d="M6.51,15.63c-.3,0-.55-.23-.57-.54l-.4-7.23c-.02-.31.22-.58.54-.6.31-.01.58.22.6.53l.4,7.23c.02.31-.22.58-.54.6-.01,0-.02,0-.03,0Z"/><path class="cls-1" d="M12.83,3.65h-6.23c-.31,0-.57-.25-.57-.57v-1.51c0-.86.7-1.57,1.57-1.57h4.23c.86,0,1.57.7,1.57,1.57v1.51c0,.31-.25.57-.57.57ZM7.17,2.51h5.09v-.95c0-.24-.19-.43-.43-.43h-4.23c-.24,0-.43.19-.43.43v.95Z"/></g></svg>