<?xml version="1.0" encoding="UTF-8"?><svg id="Layer_2" xmlns="http://www.w3.org/2000/svg" viewBox="0 0 19.13 19.13"><g id="Layer_1-2"><path d="M9.57,19.13C4.29,19.13,0,14.84,0,9.57S4.29,0,9.57,0s9.57,4.29,9.57,9.57-4.29,9.57-9.57,9.57ZM9.57,1.13C4.92,1.13,1.13,4.92,1.13,9.57s3.78,8.43,8.43,8.43,8.43-3.78,8.43-8.43S14.22,1.13,9.57,1.13ZM9.57,14.13c-1.49,0-2.88-.58-3.94-1.63-.22-.22-.22-.58,0-.8.22-.22.58-.22.8,0,.84.84,1.95,1.3,3.13,1.3s2.3-.46,3.13-1.3c.22-.22.58-.22.8,0,.22.22.22.58,0,.8-1.05,1.05-2.45,1.63-3.94,1.63ZM12.57,9.13c-.31,0-.57-.25-.57-.57v-2c0-.31.25-.57.57-.57s.57.25.57.57v2c0,.31-.25.57-.57.57ZM6.57,9.13c-.31,0-.57-.25-.57-.57v-2c0-.31.25-.57.57-.57s.57.25.57.57v2c0,.31-.25.57-.57.57Z"/></g></svg>