<?xml version="1.0" encoding="UTF-8"?><svg id="Layer_2" xmlns="http://www.w3.org/2000/svg" viewBox="0 0 19.13 16.13"><g id="Layer_1-2"><path d="M18.85.07c-.18-.1-.4-.1-.57,0-.05.03-4.93,2.92-9.71,2.92H3.57c-.68,0-1.26.44-1.48,1.04-1.19.22-2.09,1.27-2.09,2.52s.9,2.3,2.09,2.52c.22.61.8,1.04,1.48,1.04h.59l1.87,5.61c.08.23.29.39.54.39h2c.31,0,.57-.25.57-.57v-5.42c4.59.21,9.09,2.88,9.14,2.91.17.11.39.11.57,0,.18-.1.29-.29.29-.49V.57c0-.2-.11-.39-.29-.49ZM2,7.88c-.51-.22-.87-.73-.87-1.32s.36-1.1.87-1.32v2.63ZM8,15h-1.02l-1.62-4.87h2.65v4.87ZM8,9H3.57c-.24,0-.43-.19-.43-.43v-4c0-.24.19-.43.43-.43h4.43v4.87ZM18,11.61c-1.59-.82-5.15-2.44-8.87-2.6v-4.89c3.71-.15,7.28-1.77,8.87-2.6v10.08Z"/></g></svg>