<?xml version="1.0" encoding="UTF-8"?><svg id="Layer_2" xmlns="http://www.w3.org/2000/svg" viewBox="0 0 21.13 21.13"><defs><style>.cls-1{fill:#ed1c24;}</style></defs><g id="Layer_1-2"><path class="cls-1" d="M10.57,21.13c-.75,0-1.21-.77-1.61-1.44-.17-.29-.47-.78-.62-.85-.19-.03-.7.28-.99.44-.71.39-1.43.8-2.07.44-.64-.37-.65-1.21-.66-2.03,0-.33-.01-.94-.12-1.07-.13-.1-.74-.1-1.06-.11-.82-.01-1.66-.02-2.03-.66-.37-.63.04-1.36.44-2.07.16-.29.47-.83.44-1-.06-.14-.55-.43-.85-.61-.68-.4-1.44-.86-1.44-1.61s.77-1.21,1.44-1.61c.29-.17.79-.47.85-.62.02-.16-.28-.7-.44-.99-.39-.71-.8-1.44-.43-2.07.37-.64,1.21-.65,2.03-.66.33,0,.94-.01,1.07-.12.1-.13.1-.74.11-1.06.01-.81.02-1.66.66-2.03.63-.37,1.36.04,2.07.44.29.16.84.45,1,.44.14-.06.43-.55.61-.85.4-.68.86-1.44,1.61-1.44s1.21.77,1.61,1.44c.17.29.47.79.62.85.16.03.7-.28.99-.44.71-.39,1.43-.8,2.07-.44.64.37.65,1.21.66,2.03,0,.33.01.94.12,1.07.13.1.74.1,1.06.11.82.01,1.66.02,2.03.66.37.63-.04,1.36-.44,2.07-.16.29-.47.84-.44,1,.06.14.55.43.85.61.68.4,1.44.86,1.44,1.61s-.77,1.21-1.44,1.61c-.29.17-.79.47-.85.62-.02.16.28.7.44.99.39.71.8,1.44.44,2.07-.37.64-1.21.65-2.03.66-.33,0-.94.01-1.07.12-.1.13-.1.74-.11,1.06-.01.81-.02,1.66-.66,2.03-.63.37-1.36-.04-2.07-.44-.29-.16-.84-.46-1-.44-.14.06-.43.55-.61.85-.4.68-.86,1.44-1.61,1.44ZM8.34,17.71c.1,0,.2.01.3.04.57.15.92.74,1.29,1.36.17.29.5.83.66.89.12-.06.44-.6.61-.89.37-.62.72-1.21,1.29-1.36.58-.16,1.23.2,1.85.54.3.17.83.46.98.43.05-.1.06-.72.06-1.05,0-.7.02-1.43.44-1.85.42-.43,1.15-.44,1.85-.44.33,0,.95-.01,1.08-.12,0-.11-.29-.62-.46-.92-.34-.62-.7-1.26-.54-1.85.15-.57.74-.92,1.36-1.29.28-.17.78-.47.88-.63-.1-.17-.6-.47-.88-.63-.62-.37-1.21-.72-1.37-1.29-.16-.59.2-1.23.54-1.85.17-.3.45-.81.43-.98-.1-.05-.72-.06-1.05-.06-.7,0-1.43-.02-1.85-.44-.43-.43-.43-1.15-.44-1.85,0-.33-.01-.95-.12-1.08-.11,0-.62.29-.92.46-.62.35-1.26.7-1.85.54-.57-.15-.92-.74-1.29-1.36-.17-.29-.5-.83-.66-.89-.12.06-.44.6-.61.89-.37.62-.72,1.21-1.29,1.36-.59.16-1.23-.2-1.84-.54-.3-.17-.82-.46-.98-.43-.05.1-.06.72-.06,1.05,0,.7-.02,1.43-.44,1.85-.42.43-1.15.43-1.85.44-.33,0-.95.01-1.08.12,0,.11.29.62.46.92.35.62.7,1.26.54,1.85-.15.57-.74.92-1.36,1.29-.29.17-.83.49-.89.66.06.12.6.44.89.61.62.37,1.21.72,1.36,1.29.16.59-.2,1.23-.54,1.85-.17.3-.45.81-.43.98.1.05.72.06,1.05.06.7,0,1.43.02,1.85.44.43.43.43,1.15.44,1.85,0,.33.01.95.12,1.08.11,0,.62-.29.92-.46.51-.29,1.04-.58,1.55-.58ZM20,10.59h0,0Z"/><path class="cls-1" d="M8.08,10.33c-1.05,0-1.9-.85-1.9-1.9s.85-1.9,1.9-1.9,1.9.85,1.9,1.9-.85,1.9-1.9,1.9ZM8.08,7.66c-.42,0-.77.34-.77.77s.34.77.77.77.77-.34.77-.77-.34-.77-.77-.77Z"/><path class="cls-1" d="M12.68,15.06c-1.05,0-1.9-.85-1.9-1.9s.85-1.9,1.9-1.9,1.9.85,1.9,1.9-.85,1.9-1.9,1.9ZM12.68,12.4c-.42,0-.77.34-.77.77s.34.77.77.77.77-.34.77-.77-.34-.77-.77-.77Z"/><path class="cls-1" d="M7.43,14.33c-.15,0-.29-.06-.4-.17-.22-.22-.22-.58,0-.8l6-6c.22-.22.58-.22.8,0,.22.22.22.58,0,.8l-6,6c-.11.11-.26.17-.4.17Z"/></g></svg>