<?xml version="1.0" encoding="UTF-8"?>
<svg id="Layer_2" xmlns="http://www.w3.org/2000/svg" version="1.1" viewBox="0 0 19.1 19.1">
  <!-- Generator: Adobe Illustrator 29.4.0, SVG Export Plug-In . SVG Version: 2.1.0 Build 152)  -->
  <defs>
    <style>
      .st0 {
        fill: #fff;
      }
    </style>
  </defs>
  <g id="Layer_1-2">
    <path class="st0" d="M18.6,19.1c-.1,0-.3,0-.4-.2l-4.5-4.5c-1.4,1.3-3.3,2-5.4,2C3.7,16.5,0,12.8,0,8.2S3.7,0,8.2,0s8.2,3.7,8.2,8.2-.8,4-2,5.4l4.5,4.5c.2.2.2.6,0,.8s-.3.2-.4.2h0ZM8.2,1.1c-3.9,0-7.1,3.2-7.1,7.1s3.2,7.1,7.1,7.1,7.1-3.2,7.1-7.1S12.1,1.1,8.2,1.1Z"/>
  </g>
</svg>