<?xml version="1.0" encoding="UTF-8"?><svg id="Layer_2" xmlns="http://www.w3.org/2000/svg" viewBox="0 0 19.13 19.13"><g id="Layer_1-2"><path d="M9.57,19.13C4.29,19.13,0,14.84,0,9.57S4.29,0,9.57,0s9.57,4.29,9.57,9.57-4.29,9.57-9.57,9.57ZM9.57,1.13C4.92,1.13,1.13,4.92,1.13,9.57s3.78,8.43,8.43,8.43,8.43-3.78,8.43-8.43S14.22,1.13,9.57,1.13ZM10.57,14.13h-2c-.31,0-.57-.25-.57-.57s.25-.57.57-.57h.43v-3.87h-.43c-.31,0-.57-.25-.57-.57s.25-.57.57-.57h1c.31,0,.57.25.57.57v4.43h.43c.31,0,.57.25.57.57s-.25.57-.57.57ZM9.57,7.13c-.59,0-1.07-.48-1.07-1.07s.48-1.07,1.07-1.07,1.07.48,1.07,1.07-.48,1.07-1.07,1.07ZM9.57,6l-.07.07s.03.07.07.07v-.13Z"/></g></svg>