<?xml version="1.0" encoding="UTF-8"?><svg id="Layer_2" xmlns="http://www.w3.org/2000/svg" viewBox="0 0 19.13 19.13"><defs><style>.cls-1{fill:#fff;}</style></defs><g id="Layer_1-2"><path class="cls-1" d="M17.07,19.13c-1.14,0-2.07-.93-2.07-2.07s.93-2.07,2.07-2.07,2.07.93,2.07,2.07-.93,2.07-2.07,2.07ZM17.07,16.13c-.51,0-.93.42-.93.93s.42.93.93.93.93-.42.93-.93-.42-.93-.93-.93ZM5.07,19.13c-1.14,0-2.07-.93-2.07-2.07s.93-2.07,2.07-2.07,2.07.93,2.07,2.07-.93,2.07-2.07,2.07ZM5.07,16.13c-.51,0-.93.42-.93.93s.42.93.93.93.93-.42.93-.93-.42-.93-.93-.93ZM17.57,14.13H5.57c-.31,0-.57-.25-.57-.57v-1.93l-1.98-7.91-.86-2.59H.57c-.31,0-.57-.25-.57-.57s.25-.57.57-.57h2c.24,0,.46.16.54.39l.87,2.61h14.59c.17,0,.33.07.43.2.11.13.15.29.13.46l-1,6c-.04.24-.23.43-.47.47l-11.53,1.92v.95h11.43c.31,0,.57.25.57.57s-.25.57-.57.57ZM4.29,4.13l1.7,6.79,11.08-1.85.82-4.94H4.29ZM17.57,9.57h0,0Z"/></g></svg>