<?xml version="1.0" encoding="UTF-8"?><svg id="Layer_2" xmlns="http://www.w3.org/2000/svg" viewBox="0 0 37 37"><defs><style>.cls-1{fill:#333;}</style></defs><g id="Layer_1-2"><path class="cls-1" d="M18.5,37C8.3,37,0,28.7,0,18.5S8.3,0,18.5,0s18.5,8.3,18.5,18.5-8.3,18.5-18.5,18.5ZM18.5,2C9.4,2,2,9.4,2,18.5s7.4,16.5,16.5,16.5,16.5-7.4,16.5-16.5S27.6,2,18.5,2Z"/><path class="cls-1" d="M25.17,17.5h-5.67v-5.67c0-.55-.45-1-1-1s-1,.45-1,1v5.67h-5.67c-.55,0-1,.45-1,1s.45,1,1,1h5.67v5.67c0,.55.45,1,1,1s1-.45,1-1v-5.67h5.67c.55,0,1-.45,1-1s-.45-1-1-1Z"/></g></svg>