<?xml version="1.0" encoding="UTF-8"?>
<svg id="Layer_2" xmlns="http://www.w3.org/2000/svg" version="1.1" viewBox="0 0 19.1 19.1">
  <!-- Generator: Adobe Illustrator 29.4.0, SVG Export Plug-In . SVG Version: 2.1.0 Build 152)  -->
  <defs>
    <style>
      .st0 {
        fill: #fff;
      }
    </style>
  </defs>
  <g id="Layer_1-2">
    <path class="st0" d="M9.6,19.1C4.3,19.1,0,14.8,0,9.6S4.3,0,9.6,0s9.6,4.3,9.6,9.6-4.3,9.6-9.6,9.6h0ZM9.6,1.1C4.9,1.1,1.1,4.9,1.1,9.6s3.8,8.4,8.4,8.4,8.4-3.8,8.4-8.4S14.2,1.1,9.6,1.1ZM10.6,14.1h-2c-.3,0-.6-.2-.6-.6s.3-.6.6-.6h.4v-3.9h-.4c-.3,0-.6-.2-.6-.6s.3-.6.6-.6h1c.3,0,.6.3.6.6v4.4h.4c.3,0,.6.2.6.6s-.2.6-.6.6h0ZM9.6,7.1c-.6,0-1.1-.5-1.1-1.1s.5-1.1,1.1-1.1,1.1.5,1.1,1.1-.5,1.1-1.1,1.1ZM9.6,6h0c0,0,0,.1,0,.1h0Z"/>
  </g>
</svg>