<?xml version="1.0" encoding="UTF-8"?><svg id="Layer_2" xmlns="http://www.w3.org/2000/svg" viewBox="0 0 19.13 18.63"><defs><style>.cls-1{fill:#333;}</style></defs><g id="Layer_1-2"><path class="cls-1" d="M8.22,18.63c-.06,0-.13-.01-.19-.03-.23-.08-.38-.29-.38-.54V7.08L.21,1.01C.02.85-.05.6.03.38c.08-.23.29-.38.53-.38h18c.24,0,.45.15.53.38.08.23,0,.48-.18.63l-7.44,6.07v7.61c0,.13-.04.25-.12.35l-2.7,3.38c-.11.14-.27.21-.44.21ZM2.16,1.13l6.42,5.24c.13.11.21.27.21.44v9.63l1.56-1.96v-7.68c0-.17.08-.33.21-.44l6.42-5.24H2.16ZM10.92,14.68h0,0Z"/></g></svg>