<?xml version="1.0" encoding="UTF-8"?><svg id="Layer_2" xmlns="http://www.w3.org/2000/svg" viewBox="0 0 90 90"><defs><style>.cls-1{fill:none;}.cls-2{fill:#fff;}</style></defs><g id="Layer_2-2"><g id="Logo"><g id="Logo-2"><path id="Initiator" class="cls-2" d="M90,45C90,20.15,69.85,0,45,0S0,20.15,0,45c0,21.1,14.53,38.81,34.13,43.68v-29.92h-9.28v-13.75h9.28v-5.93c0-15.32,6.93-22.42,21.97-22.42,2.85,0,7.77.56,9.78,1.12v12.47c-1.06-.11-2.91-.17-5.2-.17-7.38,0-10.23,2.8-10.23,10.06v4.86h14.7l-2.53,13.75h-12.17v30.92c22.28-2.69,39.55-21.66,39.55-44.67h0Z"/><path id="F" class="cls-1" d="M62.62,58.75l2.53-13.75h-14.7v-4.86c0-7.27,2.85-10.06,10.23-10.06,2.29,0,4.14.06,5.2.17v-12.46c-2.01-.56-6.93-1.12-9.78-1.12-15.04,0-21.97,7.1-21.97,22.42v5.93h-9.28v13.75h9.28v29.92c3.48.86,7.12,1.32,10.87,1.32,1.84,0,3.66-.11,5.45-.33v-30.92h12.17Z"/></g></g></g></svg>