<?xml version="1.0" encoding="UTF-8"?><svg id="Layer_2" xmlns="http://www.w3.org/2000/svg" viewBox="0 0 90 90"><defs><style>.cls-1{fill:#fff;}</style></defs><g id="Layer_2-2"><path class="cls-1" d="M26.36.31c-4.79.23-8.06.99-10.92,2.11-2.96,1.15-5.47,2.7-7.96,5.2-2.49,2.5-4.03,5.01-5.18,7.98-1.11,2.86-1.86,6.14-2.07,10.93C.03,31.33-.02,32.87,0,45.09c.02,12.22.08,13.75.31,18.55.23,4.79.99,8.06,2.11,10.92,1.15,2.96,2.7,5.46,5.2,7.96,2.5,2.5,5.01,4.03,7.98,5.18,2.86,1.11,6.14,1.86,10.93,2.07,4.79.21,6.33.26,18.55.23,12.22-.02,13.75-.08,18.55-.31,4.8-.23,8.05-.99,10.91-2.11,2.96-1.16,5.47-2.7,7.96-5.21s4.03-5.02,5.17-7.98c1.11-2.86,1.86-6.14,2.07-10.92.21-4.8.26-6.34.24-18.56-.02-12.22-.08-13.75-.31-18.55s-.99-8.06-2.11-10.92c-1.16-2.96-2.7-5.46-5.2-7.96s-5.02-4.03-7.98-5.17c-2.86-1.11-6.14-1.86-10.93-2.07S57.14-.02,44.91,0s-13.75.08-18.55.31M26.89,81.66c-4.39-.19-6.77-.92-8.36-1.53-2.1-.81-3.6-1.79-5.18-3.36s-2.55-3.07-3.38-5.17c-.62-1.59-1.36-3.97-1.56-8.35-.22-4.74-.27-6.17-.3-18.18s.02-13.44.23-18.18c.19-4.38.92-6.77,1.53-8.36.81-2.11,1.79-3.6,3.36-5.18s3.07-2.56,5.17-3.38c1.59-.62,3.97-1.36,8.35-1.56,4.75-.23,6.17-.27,18.18-.3,12.01-.03,13.44.02,18.19.23,4.38.19,6.77.92,8.35,1.53,2.1.81,3.6,1.78,5.18,3.36,1.58,1.57,2.56,3.07,3.38,5.17.62,1.58,1.36,3.96,1.56,8.35.23,4.75.28,6.17.3,18.18.02,12.01-.02,13.44-.23,18.18-.19,4.39-.92,6.77-1.53,8.36-.81,2.1-1.79,3.6-3.36,5.18s-3.07,2.55-5.17,3.38c-1.58.62-3.97,1.36-8.35,1.57-4.75.22-6.17.27-18.18.3s-13.43-.02-18.18-.23M63.57,20.95c0,2.98,2.43,5.4,5.41,5.39s5.4-2.43,5.39-5.41c0-2.98-2.43-5.4-5.41-5.39,0,0,0,0,0,0-2.98,0-5.39,2.43-5.39,5.41M21.89,45.05c.03,12.76,10.39,23.08,23.15,23.06s23.09-10.39,23.06-23.15-10.39-23.09-23.15-23.06c-12.76.03-23.09,10.39-23.06,23.15M30,45.03c-.02-8.28,6.69-15.01,14.97-15.03,8.28-.02,15.01,6.69,15.03,14.97.02,8.28-6.69,15.01-14.97,15.03-8.28.02-15.01-6.68-15.03-14.97h0"/></g></svg>