<?xml version="1.0" encoding="UTF-8"?><svg id="Layer_1" xmlns="http://www.w3.org/2000/svg" viewBox="0 0 109 90"><defs><style>.cls-1{fill:#fff;}</style></defs><g id="Layer_1-2"><path class="cls-1" d="M105.84,17.86c-1.23-4.85-4.86-8.67-9.47-9.97-8.36-2.36-41.87-2.36-41.87-2.36,0,0-33.5,0-41.86,2.36-4.61,1.3-8.24,5.11-9.47,9.97C.93,26.65.93,45,.93,45c0,0,0,18.35,2.24,27.14,1.23,4.85,4.86,8.67,9.47,9.97,8.35,2.36,41.86,2.36,41.86,2.36,0,0,33.5,0,41.86-2.36,4.61-1.3,8.24-5.11,9.47-9.97,2.24-8.79,2.24-27.14,2.24-27.14,0,0,0-18.35-2.24-27.14h0ZM43.78,61.91V28.09l27.83,16.91s-27.83,16.91-27.83,16.91Z"/></g></svg>