<?xml version="1.0" encoding="UTF-8"?><svg id="Layer_2" xmlns="http://www.w3.org/2000/svg" viewBox="0 0 18.75 19.13"><defs><style>.cls-1{fill:#ee624d;}</style></defs><g id="Layer_1-2"><path class="cls-1" d="M12.52,7.6c-.25,0-.51-.1-.7-.29-.19-.19-.29-.44-.29-.71s.1-.52.29-.71c.39-.39,1.02-.39,1.41,0,.39.39.39,1.02,0,1.41-.2.19-.45.29-.71.29ZM12.52,6.47s-.07.01-.1.04c-.06.06-.06.14,0,.19.05.06.14.05.2,0,.04-.05.04-.15,0-.2-.03-.03-.06-.04-.1-.04Z"/><path class="cls-1" d="M13.48,7.41c-.62,0-1.16-.2-1.55-.59-.22-.22-.22-.58,0-.8.22-.22.58-.22.8,0,.27.27.76.33,1.36.17.71-.19,1.48-.67,2.12-1.31s1.12-1.42,1.31-2.12c.16-.6.1-1.09-.17-1.36-.55-.55-2.12-.22-3.48,1.14-.53.53-.93,1.12-1.17,1.71-.12.29-.45.43-.74.31-.29-.12-.43-.45-.31-.74.3-.73.79-1.45,1.42-2.09C14.82-.02,17.05-.52,18.16.59c1.11,1.11.6,3.34-1.14,5.09-.79.79-1.73,1.36-2.63,1.61-.32.08-.62.13-.91.13Z"/><path class="cls-1" d="M7.58,19.13c-.25,0-.5-.09-.69-.28L.29,12.24c-.38-.38-.38-1,0-1.38L7.34,3.81c.18-.18.42-.28.67-.28l6.73-.12c.27-.04.52.1.71.28s.29.44.28.71l-.12,6.73c0,.25-.11.49-.28.67l-7.06,7.06c-.19.19-.44.28-.69.28ZM7.7,18.04h0,0ZM1.2,11.55l6.38,6.38,6.9-6.9.12-6.5-6.5.12L1.2,11.55Z"/></g></svg>